<?xml version="1.0" encoding="UTF-8"?>
<svg version="1.1" xmlns="http://www.w3.org/2000/svg" width="45" height="45">
<path d="M0 0 C1.4386494 0.06032073 2.87611902 0.14920133 4.3125 0.25 C5.51326172 0.31960937 5.51326172 0.31960937 6.73828125 0.390625 C9.73737672 1.19867145 10.29764105 2.44813933 12 5 C12.7241901 6.39772143 13.40486892 7.81874853 14.04296875 9.2578125 C14.39423828 10.04800781 14.74550781 10.83820312 15.10742188 11.65234375 C15.64206055 12.87630859 15.64206055 12.87630859 16.1875 14.125 C16.55552734 14.94871094 16.92355469 15.77242187 17.30273438 16.62109375 C20 22.73623029 20 22.73623029 20 25 C20.71027344 24.98839844 21.42054687 24.97679688 22.15234375 24.96484375 C23.07144531 24.95582031 23.99054687 24.94679688 24.9375 24.9375 C26.31228516 24.92009766 26.31228516 24.92009766 27.71484375 24.90234375 C30 25 30 25 31 26 C31.04080783 27.99958364 31.04254356 30.00045254 31 32 C28.69 32 26.38 32 24 32 C25.21620585 35.01647106 25.21620585 35.01647106 27 38 C29.07690578 38.96044102 29.07690578 38.96044102 31 39 C31 39.99 31 40.98 31 42 C25.46386294 43.42868053 19.44788588 43.81596196 14 42 C14.33 41.01 14.66 40.02 15 39 C15.66 39 16.32 39 17 39 C16.01 37.68 15.02 36.36 14 35 C13.52691406 35.49371094 13.05382812 35.98742188 12.56640625 36.49609375 C8.22960006 40.69763893 5.14378691 42.77536823 -0.921875 43.22265625 C-3.36343085 42.96106098 -4.92196415 42.29597935 -7 41 C-9.48984886 36.85025191 -8.90761769 33.62885021 -8 29 C-9.98 28.67 -11.96 28.34 -14 28 C-14 26.02 -14 24.04 -14 22 C-6.25 20.875 -6.25 20.875 -4 22 C-3.82984375 21.443125 -3.6596875 20.88625 -3.484375 20.3125 C-1.76684063 14.90409391 0.35342255 10.01937104 3 5 C1.68 4.34 0.36 3.68 -1 3 C-0.67 2.01 -0.34 1.02 0 0 Z M4 13 C3.01 15.97 2.02 18.94 1 22 C3.64 22 6.28 22 9 22 C8.01 19.03 7.02 16.06 6 13 C5.34 13 4.68 13 4 13 Z M-2 28 C-2.042721 29.66611905 -2.04063832 31.33382885 -2 33 C-0.85086031 34.36607015 -0.85086031 34.36607015 2.25 34.25 C6.14600061 33.99026663 7.89205355 33.26032469 11 31 C10.67 30.34 10.34 29.68 10 29 C7.1840151 28.53101037 7.1840151 28.53101037 3.9375 28.375 C2.28041016 28.26285156 2.28041016 28.26285156 0.58984375 28.1484375 C-0.26480469 28.09945313 -1.11945312 28.05046875 -2 28 Z " fill="#DAA051" transform="translate(14,0)"/>
<path d="M0 0 C3.58784902 4.30541882 6.77931309 9.35175705 7.25 15 C7.1675 15.66 7.085 16.32 7 17 C7.66 17 8.32 17 9 17 C10.0625 18.8125 10.0625 18.8125 11 21 C10.67 21.99 10.34 22.98 10 24 C9.01 22.68 8.02 21.36 7 20 C6.52691406 20.49371094 6.05382812 20.98742187 5.56640625 21.49609375 C1.22960006 25.69763893 -1.85621309 27.77536823 -7.921875 28.22265625 C-10.36343085 27.96106098 -11.92196415 27.29597935 -14 26 C-16.48984886 21.85025191 -15.90761769 18.62885021 -15 14 C-14.34 15.32 -13.68 16.64 -13 18 C-12.01 18 -11.02 18 -10 18 C-10.0928125 16.453125 -10.0928125 16.453125 -10.1875 14.875 C-9.98864405 10.76531027 -9.05532197 8.51117504 -7 5 C-6.67 5.66 -6.34 6.32 -6 7 C-3.36 7 -0.72 7 2 7 C1.67 6.401875 1.34 5.80375 1 5.1875 C0 3 0 3 0 0 Z M-9 13 C-9.042721 14.66611905 -9.04063832 16.33382885 -9 18 C-7.85086031 19.36607015 -7.85086031 19.36607015 -4.75 19.25 C-0.85399939 18.99026663 0.89205355 18.26032469 4 16 C3.67 15.34 3.34 14.68 3 14 C0.1840151 13.53101037 0.1840151 13.53101037 -3.0625 13.375 C-4.71958984 13.26285156 -4.71958984 13.26285156 -6.41015625 13.1484375 C-7.26480469 13.09945313 -8.11945312 13.05046875 -9 13 Z " fill="#B67539" transform="translate(21,15)"/>
<path d="M0 0 C2.08301383 2.49961659 3.74764619 5.15674019 5.3125 8 C5.67988281 8.66 6.04726563 9.32 6.42578125 10 C7 12 7 12 6.10546875 14.25 C5.74066406 14.8275 5.37585937 15.405 5 16 C3.41642541 15.68872484 1.83315007 15.37592711 0.25 15.0625 C-0.63171875 14.88847656 -1.5134375 14.71445312 -2.421875 14.53515625 C-4.63235053 14.07631512 -6.81512068 13.56663926 -9 13 C-9 14.65 -9 16.3 -9 18 C-9.33 18 -9.66 18 -10 18 C-10.31563182 12.73946963 -9.66590937 9.55426184 -7 5 C-6.67 5.66 -6.34 6.32 -6 7 C-3.36 7 -0.72 7 2 7 C1.67 6.401875 1.34 5.80375 1 5.1875 C0 3 0 3 0 0 Z " fill="#AB3936" transform="translate(21,15)"/>
<path d="M0 0 C1.64574566 -0.02688151 3.29161413 -0.04634123 4.9375 -0.0625 C5.85402344 -0.07410156 6.77054688 -0.08570312 7.71484375 -0.09765625 C10 0 10 0 11 1 C11.04080783 2.99958364 11.04254356 5.00045254 11 7 C8.69 7 6.38 7 4 7 C4.33 8.32 4.66 9.64 5 11 C4.34 11 3.68 11 3 11 C3 10.01 3 9.02 3 8 C2.34 8 1.68 8 1 8 C0.67 5.36 0.34 2.72 0 0 Z " fill="#A74944" transform="translate(34,25)"/>
<path d="M0 0 C2.08301383 2.49961659 3.74764619 5.15674019 5.3125 8 C5.67988281 8.66 6.04726563 9.32 6.42578125 10 C7 12 7 12 6.10546875 14.25 C5.74066406 14.8275 5.37585937 15.405 5 16 C3.41532272 15.71572583 1.8322943 15.42225182 0.25 15.125 C-0.63171875 14.96257813 -1.5134375 14.80015625 -2.421875 14.6328125 C-5 14 -5 14 -9 12 C-4.71 12 -0.42 12 4 12 C3.67 10.68 3.34 9.36 3 8 C-0.63 8 -4.26 8 -8 8 C-7.34 7.01 -6.68 6.02 -6 5 C-6 5.66 -6 6.32 -6 7 C-3.36 7 -0.72 7 2 7 C1.67 6.401875 1.34 5.80375 1 5.1875 C0 3 0 3 0 0 Z " fill="#5C3423" transform="translate(21,15)"/>
<path d="M0 0 C-0.99 0.495 -0.99 0.495 -2 1 C-2 2.98 -2 4.96 -2 7 C-4.64 6.67 -7.28 6.34 -10 6 C-10 4.02 -10 2.04 -10 0 C-6.30458414 -0.95024979 -3.69541586 -0.95024979 0 0 Z " fill="#832D26" transform="translate(10,22)"/>
<path d="M0 0 C2.4198163 2.18648763 3.73254576 4.18336436 5.04296875 7.16015625 C5.39423828 7.95357422 5.74550781 8.74699219 6.10742188 9.56445312 C6.46384766 10.38880859 6.82027344 11.21316406 7.1875 12.0625 C7.55552734 12.89072266 7.92355469 13.71894531 8.30273438 14.57226562 C11 20.72243159 11 20.72243159 11 23 C8 22 8 22 6.2109375 18.8671875 C5.58804004 17.54153394 4.97648676 16.21050451 4.375 14.875 C4.06304688 14.22273438 3.75109375 13.57046875 3.4296875 12.8984375 C1.43577776 8.56684048 0.45619308 4.74687392 0 0 Z " fill="#B3955D" transform="translate(23,2)"/>
<path d="M0 0 C0 4.29 0 8.58 0 13 C-1.32 12.34 -2.64 11.68 -4 11 C-4 12.65 -4 14.3 -4 16 C-4.33 16 -4.66 16 -5 16 C-5.2037037 5.81481481 -5.2037037 5.81481481 -4 1 C-2 0 -2 0 0 0 Z " fill="#E7A05D" transform="translate(12,22)"/>
<path d="M0 0 C0.99 0.33 1.98 0.66 3 1 C1.68 3.97 0.36 6.94 -1 10 C-1.33 9.34 -1.66 8.68 -2 8 C-2.66 8 -3.32 8 -4 8 C-3.40138258 5.64828869 -2.73075648 3.3140622 -2 1 C-1.34 0.67 -0.68 0.34 0 0 Z " fill="#D3A262" transform="translate(14,14)"/>
<path d="M0 0 C0.99 0 1.98 0 3 0 C3 0.66 3 1.32 3 2 C4.32 2.66 5.64 3.32 7 4 C4.36 4 1.72 4 -1 4 C-1 5.98 -1 7.96 -1 10 C-1.33 10 -1.66 10 -2 10 C-2.25 3.375 -2.25 3.375 0 0 Z " fill="#924639" transform="translate(13,23)"/>
<path d="M0 0 C2.97 0.33 5.94 0.66 9 1 C7.68 1.33 6.36 1.66 5 2 C4.67 2.99 4.34 3.98 4 5 C1.525 4.01 1.525 4.01 -1 3 C-0.67 2.01 -0.34 1.02 0 0 Z " fill="#A69165" transform="translate(14,0)"/>
<path d="M0 0 C5 7.5 5 7.5 5 11 C2 10 2 10 0.8125 8.3125 C-0.19313465 5.45030907 -0.13689641 3.01172092 0 0 Z " fill="#A8814F" transform="translate(29,14)"/>
<path d="M0 0 C0.66 3.3 1.32 6.6 2 10 C1.34 10 0.68 10 0 10 C0 9.01 0 8.02 0 7 C-0.66 7 -1.32 7 -2 7 C-2.33 5.02 -2.66 3.04 -3 1 C-1 0 -1 0 0 0 Z " fill="#B37249" transform="translate(37,26)"/>
<path d="M0 0 C1.5625 1.6875 1.5625 1.6875 3 4 C2.75925978 7.37036311 2.41201979 8.58798021 0 11 C0.33 9.35 0.66 7.7 1 6 C0.01 6 -0.98 6 -2 6 C-1.34 4.02 -0.68 2.04 0 0 Z " fill="#8F7244" transform="translate(15,9)"/>
<path d="M0 0 C1 2 1 2 0.0625 5.125 C-0.288125 6.07375 -0.63875 7.0225 -1 8 C-2.0625 6.1875 -2.0625 6.1875 -3 4 C-2.67 3.01 -2.34 2.02 -2 1 C-1.34 0.67 -0.68 0.34 0 0 Z " fill="#B77A40" transform="translate(26,30)"/>
</svg>
