<?xml version="1.0" encoding="UTF-8"?>
<svg version="1.1" xmlns="http://www.w3.org/2000/svg" width="128" height="102">
<path d="M0 0 C0.99 0 1.98 0 3 0 C3 0.66 3 1.32 3 2 C4.5159375 1.5978125 4.5159375 1.5978125 6.0625 1.1875 C10.8155696 0.96116335 11.82462794 1.99899292 15.30859375 4.8828125 C17.09813595 6.30780119 17.09813595 6.30780119 20.125 5.8125 C23 6 23 6 24.484375 7.65625 C28 13.10744382 28 13.10744382 28 17 C29.258125 16.95875 30.51625 16.9175 31.8125 16.875 C38.71860448 16.875 45.88931644 17.60992381 52 21 C52.21278058 25.46839215 51.59138085 28.82262526 50 33 C49.01 33 48.02 33 47 33 C46.505 31.02 46.505 31.02 46 29 C32.41145427 25.96426106 19.84201602 25.09075641 6 27 C-3.26624738 27.48916841 -3.26624738 27.48916841 -7 25 C-6.505 20.545 -6.505 20.545 -6 16 C-5.01 16 -4.02 16 -3 16 C-2.71125 16.639375 -2.4225 17.27875 -2.125 17.9375 C-1.17176549 20.15206079 -1.17176549 20.15206079 1 21 C9.11792704 20.93290969 17.13497956 18.80192831 25 17 C15.97679085 10.72226739 15.97679085 10.72226739 5.75 6.9375 C2 6 2 6 0 4 C0 2.68 0 1.36 0 0 Z " fill="#ED1B2D" transform="translate(49,0)"/>
<path d="M0 0 C0.99 0 1.98 0 3 0 C3.804375 1.051875 3.804375 1.051875 4.625 2.125 C6.76910681 4.24177325 6.76910681 4.24177325 9.08203125 3.890625 C12.37125352 3.17059625 15.37755862 2.28728064 18.4375 0.875 C22.65791292 -0.56611661 26.60623298 -0.76271623 31 0 C34.31623216 1.6374542 37.11886766 3.69621519 40 6 C41.33167267 7.0022104 42.66451382 8.00287691 44 9 C43.62176603 11.46377407 43.30500443 12.7113351 41.46875 14.44921875 C34.30443903 18.95534291 28.53657323 19.36917712 20.25 18.3125 C15.88017691 17.78329393 15.88017691 17.78329393 12 19.9375 C11.01 20.9584375 11.01 20.9584375 10 22 C9.01 22 8.02 22 7 22 C7.61078349 14.54844145 7.61078349 14.54844145 9.375 12.0625 C12.22160873 10.20125583 14.70948529 9.87751493 18.01171875 9.90234375 C19.14770508 9.90717773 19.14770508 9.90717773 20.30664062 9.91210938 C21.48516602 9.92467773 21.48516602 9.92467773 22.6875 9.9375 C23.88342773 9.94426758 23.88342773 9.94426758 25.10351562 9.95117188 C27.06904257 9.9629415 29.03453085 9.98087652 31 10 C26.27112013 7.50659062 23.40107883 6.35919404 18 7 C16.5236497 7.62575582 15.06566027 8.29595559 13.625 9 C9.12725617 11.17558106 4.95898545 11.90163372 0 11 C-2 9 -2 9 -2.25 6.625 C-1.99345272 3.93125358 -1.36770587 2.30800365 0 0 Z " fill="#ED1B2D" transform="translate(2,20)"/>
<path d="M0 0 C0.99 0 1.98 0 3 0 C3.08636719 0.67546875 3.17273437 1.3509375 3.26171875 2.046875 C4.02696431 7.84460099 4.02696431 7.84460099 7.5625 12.25 C8.366875 12.8275 9.17125 13.405 10 14 C11.0625 16.9375 11.0625 16.9375 11 20 C9.25671862 22.90546896 8.16459584 24.65422746 4.85546875 25.63671875 C4.24316406 25.75660156 3.63085938 25.87648438 3 26 C2.95101562 26.73605469 2.90203125 27.47210938 2.8515625 28.23046875 C2.77679688 29.20628906 2.70203125 30.18210937 2.625 31.1875 C2.55539063 32.15042969 2.48578125 33.11335938 2.4140625 34.10546875 C1.99784147 37.01508938 1.20125904 39.32890774 0 42 C-0.66 42 -1.32 42 -2 42 C-2.66 38.7 -3.32 35.4 -4 32 C-3.979375 33.27875 -3.95875 34.5575 -3.9375 35.875 C-3.875 39.75 -3.875 39.75 -5 42 C-5.99 42 -6.98 42 -8 42 C-9.82935941 38.34128118 -10.98198821 35.91860105 -11.0625 31.8125 C-10 29 -10 29 -7 27.3125 C-3.77661511 25.33437073 -3.77661511 25.33437073 -3.3828125 22.30859375 C-3.14859334 19.5299028 -3.00961394 16.7880426 -3 14 C-4.65 13.67 -6.3 13.34 -8 13 C-8.33 11.35 -8.66 9.7 -9 8 C-4.25 6.875 -4.25 6.875 -2 8 C-1.34 5.36 -0.68 2.72 0 0 Z M4 17 C5 21 5 21 5 21 Z " fill="#68737A" transform="translate(36,55)"/>
<path d="M0 0 C0.99 0.33 1.98 0.66 3 1 C2.09998931 9.32509891 1.06721997 16.6313021 -3 24 C-3.81210938 25.52173828 -3.81210938 25.52173828 -4.640625 27.07421875 C-10.05581393 36.83333098 -10.05581393 36.83333098 -15 40 C-23.89308854 41.5472528 -32.6588183 36.42402792 -40 32 C-41.90625 30.3984375 -41.90625 30.3984375 -43 29 C-43 28.34 -43 27.68 -43 27 C-40.48477674 28.0033896 -37.97188896 29.01147831 -35.46484375 30.03515625 C-34.63082031 30.37417969 -33.79679687 30.71320313 -32.9375 31.0625 C-32.10089844 31.40410156 -31.26429687 31.74570313 -30.40234375 32.09765625 C-25.85652622 33.80510966 -20.81078789 35.20045731 -16 34 C-11.67815972 30.44242882 -9.28768202 26.43459965 -6.875 21.5 C-6.52953125 20.80455078 -6.1840625 20.10910156 -5.828125 19.39257812 C-2.82237117 13.09999806 -1.13322325 6.89377475 0 0 Z " fill="#68737A" transform="translate(98,46)"/>
<path d="M0 0 C2.5 0.25 2.5 0.25 4.5 2.25 C4.625 5.875 4.625 5.875 4.5 9.25 C3.18 9.25 1.86 9.25 0.5 9.25 C-0.63011652 11.4558424 -1.75415788 13.66445027 -2.875 15.875 C-3.19210938 16.49246094 -3.50921875 17.10992187 -3.8359375 17.74609375 C-6.8125893 23.63738378 -8.68153522 28.9730283 -9.125 35.625 C-9.19976562 36.68460938 -9.27453125 37.74421875 -9.3515625 38.8359375 C-9.40054688 39.63257813 -9.44953125 40.42921875 -9.5 41.25 C-10.49 40.92 -11.48 40.59 -12.5 40.25 C-16.11671171 33.01657658 -12.78833035 23.09075176 -10.71484375 15.859375 C-5.56417292 0.55641729 -5.56417292 0.55641729 0 0 Z " fill="#68737A" transform="translate(123.5,31.75)"/>
<path d="M0 0 C0 0.66 0 1.32 0 2 C-1.65 2.33 -3.3 2.66 -5 3 C-5 3.66 -5 4.32 -5 5 C-4.01 5.33 -3.02 5.66 -2 6 C-2 6.99 -2 7.98 -2 9 C-2.80308594 9.19722656 -3.60617188 9.39445312 -4.43359375 9.59765625 C-5.28050781 10.06042969 -6.12742187 10.52320313 -7 11 C-7.89667612 13.99492377 -7.89667612 13.99492377 -8.0625 17.4375 C-8.56018384 23.53924021 -8.56018384 23.53924021 -10.8046875 25.890625 C-14.41338756 27.71423855 -16.98022851 27.31902948 -21 27 C-21.99 26.34 -22.98 25.68 -24 25 C-24 24.34 -24 23.68 -24 23 C-20.04 22.67 -16.08 22.34 -12 22 C-12.04640625 20.81921875 -12.0928125 19.6384375 -12.140625 18.421875 C-12.17814949 16.86460866 -12.21454893 15.30731492 -12.25 13.75 C-12.28351563 12.97269531 -12.31703125 12.19539063 -12.3515625 11.39453125 C-12.4507459 5.59230246 -12.4507459 5.59230246 -10.109375 2.515625 C-6.54469187 -0.04566584 -4.36491321 -0.09488942 0 0 Z " fill="#68737A" transform="translate(99,37)"/>
<path d="M0 0 C0.99 0 1.98 0 3 0 C3 0.66 3 1.32 3 2 C4.010625 1.731875 5.02125 1.46375 6.0625 1.1875 C10.8155696 0.96116335 11.82462794 1.99899292 15.30859375 4.8828125 C17.09813595 6.30780119 17.09813595 6.30780119 20.125 5.8125 C23 6 23 6 24.484375 7.65625 C28 13.10744382 28 13.10744382 28 17 C24.32745007 16.36944618 21.96857674 14.74095048 18.9375 12.625 C14.13562565 9.46892936 9.81260645 7.80212103 4.21484375 6.60546875 C2 6 2 6 0 4 C0 2.68 0 1.36 0 0 Z " fill="#68737A" transform="translate(49,0)"/>
<path d="M0 0 C1.32 0.66 2.64 1.32 4 2 C4 3.32 4 4.64 4 6 C3.34 6.66 2.68 7.32 2 8 C1.48311267 9.92270725 1.03346596 11.86387709 0.625 13.8125 C-0.47657194 18.48719107 -1.53461684 21.53461684 -5 25 C-5.66 25.99 -6.32 26.98 -7 28 C-7.99 27.67 -8.98 27.34 -10 27 C-9.62111801 20.55900621 -9.62111801 20.55900621 -6.5 17.75 C-3.18266681 14.10093349 -3.40247601 11.41852015 -3.3359375 6.62109375 C-2.94775831 3.59239332 -2.00384543 2.25300082 0 0 Z " fill="#68737A" transform="translate(105,74)"/>
<path d="M0 0 C0.33 1.65 0.66 3.3 1 5 C0.34 5 -0.32 5 -1 5 C-1.33 6.65 -1.66 8.3 -2 10 C-3.6875 10.6875 -3.6875 10.6875 -6 11 C-8.75 9.75 -8.75 9.75 -11 8 C-11 7.01 -11 6.02 -11 5 C-12.32 5 -13.64 5 -15 5 C-15 4.34 -15 3.68 -15 3 C-9.8531808 -0.16727335 -5.841744 -0.35050464 0 0 Z M-10 4 C-9.67 4.66 -9.34 5.32 -9 6 C-7.02 6 -5.04 6 -3 6 C-5.95377498 3.63019987 -5.95377498 3.63019987 -10 4 Z " fill="#68737A" transform="translate(87,65)"/>
<path d="M0 0 C4.91010506 0.63356194 9.79198497 2.39582567 14 5 C15.74315576 7.64896479 16.06043918 8.55677934 15.625 11.75 C15.41875 12.4925 15.2125 13.235 15 14 C13.0625 13.6875 13.0625 13.6875 11 13 C10.67 12.01 10.34 11.02 10 10 C7.75429792 8.38050331 5.41167224 7.01009033 3.03125 5.59765625 C0.73214932 3.78932513 0.34467797 2.84974825 0 0 Z " fill="#68737A" transform="translate(72,0)"/>
<path d="M0 0 C2.86724686 0.57344937 3.8614515 0.8614515 6 3 C6.30675232 5.89967757 6.51173371 8.71783178 6.625 11.625 C6.66367187 12.42679688 6.70234375 13.22859375 6.7421875 14.0546875 C6.83653931 16.03607556 6.91936215 18.01800645 7 20 C4 19 4 19 2.83203125 16.77734375 C0.72635623 10.91211103 -0.47035746 6.23223633 0 0 Z " fill="#68737A" transform="translate(39,42)"/>
<path d="M0 0 C0.75732422 0.00644531 1.51464844 0.01289062 2.29492188 0.01953125 C3.08060547 0.03628906 3.86628906 0.05304687 4.67578125 0.0703125 C5.47306641 0.07933594 6.27035156 0.08835938 7.09179688 0.09765625 C9.05742025 0.12119665 11.022889 0.15706703 12.98828125 0.1953125 C12.98828125 1.1853125 12.98828125 2.1753125 12.98828125 3.1953125 C12.1684375 3.31648438 11.34859375 3.43765625 10.50390625 3.5625 C9.42625 3.73007812 8.34859375 3.89765625 7.23828125 4.0703125 C6.1709375 4.23273437 5.10359375 4.39515625 4.00390625 4.5625 C1.05723582 5.04756451 1.05723582 5.04756451 -1.15234375 6.265625 C-3.01171875 7.1953125 -3.01171875 7.1953125 -7.01171875 7.1953125 C-7.19921875 4.8203125 -7.19921875 4.8203125 -7.01171875 2.1953125 C-3.96490814 0.16410543 -3.41053551 -0.05128625 0 0 Z " fill="#68737A" transform="translate(66.01171875,33.8046875)"/>
<path d="M0 0 C0 0.66 0 1.32 0 2 C-1.32 2 -2.64 2 -4 2 C-4.33 2.99 -4.66 3.98 -5 5 C-6.65 5.33 -8.3 5.66 -10 6 C-10 5.01 -10 4.02 -10 3 C-11.65 3.33 -13.3 3.66 -15 4 C-15 2.35 -15 0.7 -15 -1 C-9.90848331 -2.62928534 -4.61112076 -2.95111729 0 0 Z " fill="#68737A" transform="translate(79,41)"/>
<path d="M0 0 C0.66 0.33 1.32 0.66 2 1 C1 3 0 5 -1 7 C-0.34 7.33 0.32 7.66 1 8 C0.67 8.99 0.34 9.98 0 11 C-0.66 11 -1.32 11 -2 11 C-2.66 12.98 -3.32 14.96 -4 17 C-4.99 17 -5.98 17 -7 17 C-7 16.34 -7 15.68 -7 15 C-7.66 15 -8.32 15 -9 15 C-7.25 10.125 -7.25 10.125 -5 9 C-5.103125 8.071875 -5.20625 7.14375 -5.3125 6.1875 C-5.209375 5.135625 -5.10625 4.08375 -5 3 C-2.625 1.0625 -2.625 1.0625 0 0 Z " fill="#68737A" transform="translate(114,80)"/>
<path d="M0 0 C0.66 0 1.32 0 2 0 C1.59874358 5.61758986 -0.12582134 8.12582134 -4 12 C-4.99 12 -5.98 12 -7 12 C-6.6257368 6.63556087 -5.0040457 4.50353999 -1 1 C-0.67 0.67 -0.34 0.34 0 0 Z " fill="#68737A" transform="translate(36,47)"/>
<path d="M0 0 C2.95409701 1.37154504 5.44008376 2.98863724 8 5 C7.67 6.32 7.34 7.64 7 9 C5.68 9.33 4.36 9.66 3 10 C-0.22265625 4.82421875 -0.22265625 4.82421875 -1 3 C-0.67 2.01 -0.34 1.02 0 0 Z " fill="#68737A" transform="translate(91,7)"/>
</svg>
